<svg xmlns="http://www.w3.org/2000/svg" xmlns:xlink="http://www.w3.org/1999/xlink" width="102.2" height="82.6" viewBox="0 0 102.2 82.6">
  <defs>
    <style>
      .a {
        fill: #fff;
      }

      .b, .d {
        fill: #231f20;
      }

      .b {
        fill-rule: evenodd;
      }

      .c {
        mask: url(#a);
      }

      .e {
        mask: url(#b);
      }
    </style>
    <mask id="a" x="-7.41" y="-6.27" width="58.48" height="114.82" maskUnits="userSpaceOnUse">
      <g transform="translate(-7.4 -6.3)">
        <rect class="a" width="58.5" height="114.82"/>
      </g>
    </mask>
    <mask id="b" x="50.94" y="-8.31" width="58.61" height="116.86" maskUnits="userSpaceOnUse">
      <g transform="translate(-7.4 -6.3)">
        <rect class="a" x="58.5" y="-2" width="58.5" height="116.86"/>
      </g>
    </mask>
  </defs>
  <title>logo</title>
  <path class="b" d="M7.4,9.9v79c51.1-8.1,102.2,0,102.2,0V9.9C47.6,1.8,7.4,9.9,7.4,9.9Zm4.5,75.3-.3-71.9a381.4,381.4,0,0,1,44-3.4V81.8C41.5,81.8,26.1,82.6,11.9,85.2Zm49.3-3.3V9.8c14.1,0,29.6.8,44.2,3.5l.2,71.9A379.6,379.6,0,0,0,61.2,81.9Z" transform="translate(-7.4 -6.3)"/>
  <g class="c">
    <path class="d" d="M33.7,29.5s-22-1.1-21.9,26.8S30.1,83,30.1,83H58.4V29.2ZM55.6,64H30.1s-12.5-.3-12.7-7.6,12.7-7.7,12.7-7.7H55.6Z" transform="translate(-7.4 -6.3)"/>
  </g>
  <g class="e">
    <path class="d" d="M81.9,9.8H58.4V63h25s22.1,1.4,22.1-27.2S81.9,9.8,81.9,9.8Zm2.2,33.8H61.2V28.2H83.4S100,27,100,35.9,84.1,43.6,84.1,43.6Z" transform="translate(-7.4 -6.3)"/>
  </g>
</svg>
